<?xml version="1.0" encoding="UTF-8"?> <svg xmlns="http://www.w3.org/2000/svg" width="620" height="159" viewBox="0 0 620 159" fill="none"> <rect x="3.5" y="3.5" width="613" height="151.683" rx="16.5" fill="white"></rect> <rect width="158.683" height="158.683" rx="30" fill="white"></rect> <path d="M85.1119 32.3847L100.793 59.5486C102.124 61.85 101.333 64.8028 99.0267 66.1345L92.7544 69.7531L97.5841 78.1098L89.2274 82.9346L84.4026 74.5732L78.1351 78.1966C75.8289 79.5283 72.876 78.737 71.5444 76.4307L62.6763 61.0781C52.7757 64.0791 45.5674 73.2849 45.5674 84.1649C45.5674 87.1805 46.1223 90.0706 47.1307 92.7339C50.8747 90.3601 55.2943 88.9898 60.042 88.9898C68.167 88.9898 75.356 93.0089 79.7273 99.1654L116.821 77.7479L121.646 86.1045L83.6355 108.053C83.9828 109.684 84.1662 111.382 84.1662 113.114C84.1662 114.769 84.0021 116.38 83.6837 117.939H122.765V127.589L40.7426 127.593C37.7126 123.56 35.9177 118.547 35.9177 113.114C35.9177 108.255 37.3555 103.73 39.8258 99.9422C37.3314 95.238 35.9177 89.8679 35.9177 84.1649C35.9177 69.7145 44.9933 57.3822 57.7598 52.5622L55.8636 49.2717C53.2003 44.6543 54.778 38.7535 59.3954 36.0902L71.9304 28.8529C76.5478 26.1896 82.4485 27.7673 85.1119 32.3847V32.3847ZM60.042 98.6395C52.0472 98.6395 45.5674 105.119 45.5674 113.114C45.5674 114.803 45.8569 116.429 46.3876 117.939H73.6963C74.227 116.429 74.5165 114.803 74.5165 113.114C74.5165 105.119 68.0367 98.6395 60.042 98.6395ZM76.7552 37.2095L64.2203 44.4468L77.4886 67.4276L90.0235 60.1903L76.7552 37.2095V37.2095Z" fill="#5282DF"></path> <path d="M184.443 101.842V56.1458H213.307V64.1458H194.107V73.6818H197.947C202.256 73.6818 205.776 74.2791 208.507 75.4738C211.28 76.6685 213.328 78.3111 214.651 80.4018C215.973 82.4925 216.635 84.8818 216.635 87.5698C216.635 90.5565 215.973 93.1165 214.651 95.2498C213.328 97.3831 211.28 99.0258 208.507 100.178C205.733 101.287 202.149 101.842 197.755 101.842H184.443ZM197.371 93.9058C200.315 93.9058 202.619 93.4365 204.283 92.4978C205.989 91.5591 206.843 89.9165 206.843 87.5698C206.843 85.9485 206.416 84.7111 205.563 83.8578C204.752 83.0045 203.579 82.4285 202.043 82.1298C200.549 81.7885 198.736 81.6178 196.603 81.6178H194.107V93.9058H197.371ZM234.343 80.7218C234.343 81.4471 234.3 82.3431 234.215 83.4098C234.172 84.4765 234.108 85.5645 234.023 86.6738C233.98 87.7831 233.916 88.7645 233.831 89.6178C233.746 90.4711 233.682 91.0685 233.639 91.4098L249.767 66.8978H261.223V101.842H252.007V87.8898C252.007 86.7378 252.05 85.4791 252.135 84.1138C252.22 82.7058 252.306 81.4045 252.391 80.2098C252.519 78.9725 252.604 78.0338 252.647 77.3938L236.583 101.842H225.127V66.8978H234.343V80.7218ZM303.574 84.3058C303.574 87.2071 303.168 89.7885 302.358 92.0498C301.59 94.3111 300.459 96.2311 298.966 97.8098C297.515 99.3458 295.744 100.519 293.654 101.33C291.563 102.098 289.195 102.482 286.55 102.482C284.118 102.482 281.856 102.098 279.766 101.33C277.718 100.519 275.947 99.3458 274.454 97.8098C272.96 96.2311 271.787 94.3111 270.934 92.0498C270.123 89.7885 269.718 87.2071 269.718 84.3058C269.718 80.4231 270.4 77.1591 271.766 74.5138C273.131 71.8258 275.094 69.7778 277.654 68.3698C280.214 66.9618 283.243 66.2578 286.742 66.2578C290.027 66.2578 292.928 66.9618 295.446 68.3698C297.963 69.7778 299.947 71.8258 301.398 74.5138C302.848 77.1591 303.574 80.4231 303.574 84.3058ZM279.446 84.3058C279.446 86.6098 279.68 88.5511 280.15 90.1298C280.662 91.6658 281.451 92.8391 282.518 93.6498C283.584 94.4178 284.971 94.8018 286.678 94.8018C288.384 94.8018 289.75 94.4178 290.774 93.6498C291.84 92.8391 292.608 91.6658 293.078 90.1298C293.59 88.5511 293.846 86.6098 293.846 84.3058C293.846 82.0018 293.59 80.0818 293.078 78.5458C292.608 77.0098 291.84 75.8578 290.774 75.0898C289.707 74.3218 288.32 73.9378 286.614 73.9378C284.096 73.9378 282.262 74.8125 281.11 76.5618C280 78.2685 279.446 80.8498 279.446 84.3058ZM343.391 101.842H333.855V74.0658H325.087C324.66 79.1858 324.127 83.5591 323.487 87.1858C322.889 90.7698 322.121 93.6925 321.183 95.9538C320.287 98.2151 319.135 99.8791 317.727 100.946C316.319 101.97 314.591 102.482 312.543 102.482C311.433 102.482 310.431 102.396 309.535 102.226C308.639 102.055 307.828 101.799 307.103 101.458V93.8418C307.572 94.0125 308.063 94.1618 308.575 94.2898C309.087 94.4178 309.62 94.4818 310.175 94.4818C310.772 94.4818 311.327 94.2471 311.839 93.7778C312.393 93.3085 312.905 92.4765 313.375 91.2818C313.887 90.0871 314.356 88.4445 314.783 86.3538C315.209 84.2631 315.593 81.6391 315.935 78.4818C316.319 75.2818 316.66 71.4205 316.959 66.8978H343.391V101.842ZM385.729 84.3058C385.729 87.2071 385.323 89.7885 384.513 92.0498C383.745 94.3111 382.614 96.2311 381.121 97.8098C379.67 99.3458 377.899 100.519 375.809 101.33C373.718 102.098 371.35 102.482 368.705 102.482C366.273 102.482 364.011 102.098 361.921 101.33C359.873 100.519 358.102 99.3458 356.609 97.8098C355.115 96.2311 353.942 94.3111 353.089 92.0498C352.278 89.7885 351.873 87.2071 351.873 84.3058C351.873 80.4231 352.555 77.1591 353.921 74.5138C355.286 71.8258 357.249 69.7778 359.809 68.3698C362.369 66.9618 365.398 66.2578 368.897 66.2578C372.182 66.2578 375.083 66.9618 377.601 68.3698C380.118 69.7778 382.102 71.8258 383.553 74.5138C385.003 77.1591 385.729 80.4231 385.729 84.3058ZM361.601 84.3058C361.601 86.6098 361.835 88.5511 362.305 90.1298C362.817 91.6658 363.606 92.8391 364.673 93.6498C365.739 94.4178 367.126 94.8018 368.833 94.8018C370.539 94.8018 371.905 94.4178 372.929 93.6498C373.995 92.8391 374.763 91.6658 375.233 90.1298C375.745 88.5511 376.001 86.6098 376.001 84.3058C376.001 82.0018 375.745 80.0818 375.233 78.5458C374.763 77.0098 373.995 75.8578 372.929 75.0898C371.862 74.3218 370.475 73.9378 368.769 73.9378C366.251 73.9378 364.417 74.8125 363.265 76.5618C362.155 78.2685 361.601 80.8498 361.601 84.3058ZM418.378 66.8978V74.0658H403.786V101.842H394.25V66.8978H418.378ZM434.668 80.7218C434.668 81.4471 434.625 82.3431 434.54 83.4098C434.497 84.4765 434.433 85.5645 434.348 86.6738C434.305 87.7831 434.241 88.7645 434.156 89.6178C434.071 90.4711 434.007 91.0685 433.964 91.4098L450.092 66.8978H461.548V101.842H452.332V87.8898C452.332 86.7378 452.375 85.4791 452.46 84.1138C452.545 82.7058 452.631 81.4045 452.716 80.2098C452.844 78.9725 452.929 78.0338 452.972 77.3938L436.908 101.842H425.452V66.8978H434.668V80.7218ZM477.467 101.842H467.163L476.571 88.0178C475.376 87.5058 474.245 86.8231 473.179 85.9698C472.155 85.0738 471.323 83.9431 470.683 82.5778C470.043 81.2125 469.723 79.5911 469.723 77.7138C469.723 74.2151 471.045 71.5485 473.691 69.7138C476.336 67.8365 479.728 66.8978 483.867 66.8978H500.123V101.842H490.587V88.8498H485.339L477.467 101.842ZM479.067 77.7778C479.067 79.2285 479.643 80.3805 480.795 81.2338C481.947 82.0445 483.44 82.4498 485.275 82.4498H490.587V73.6178H484.059C482.352 73.6178 481.093 74.0445 480.283 74.8978C479.472 75.7085 479.067 76.6685 479.067 77.7778Z" fill="#5282DF"></path> <rect x="3.5" y="3.5" width="613" height="151.683" rx="16.5" stroke="white" stroke-width="7"></rect> </svg> 