<?xml version="1.0" encoding="UTF-8"?> <svg xmlns="http://www.w3.org/2000/svg" width="760" height="158" viewBox="0 0 760 158" fill="none"> <rect x="4.32568" y="3.5" width="752" height="150.347" rx="16.5" fill="white"></rect> <rect x="0.825684" width="157.347" height="157.347" rx="30" fill="white"></rect> <g clip-path="url(#clip0_2261_2530)"> <path d="M79.4994 126.366C53.1591 126.366 31.8074 105.015 31.8074 78.6744C31.8074 52.3341 53.1591 30.9824 79.4994 30.9824C105.84 30.9824 127.191 52.3341 127.191 78.6744C127.191 105.015 105.84 126.366 79.4994 126.366ZM68.5779 115.24C63.8727 105.259 61.1469 94.4615 60.5514 83.4436H41.6415C42.5695 90.783 45.6091 97.6948 50.3909 103.339C55.1727 108.984 61.491 113.118 68.5779 115.24V115.24ZM70.1041 83.4436C70.8242 95.0757 74.1484 106.002 79.4994 115.645C84.995 105.747 88.2053 94.7442 88.8947 83.4436H70.1041V83.4436ZM117.357 83.4436H98.4474C97.8519 94.4615 95.1261 105.259 90.4209 115.24C97.5078 113.118 103.826 108.984 108.608 103.339C113.39 97.6948 116.429 90.783 117.357 83.4436V83.4436ZM41.6415 73.9052H60.5514C61.1469 62.8874 63.8727 52.0894 68.5779 42.109C61.491 44.2307 55.1727 48.365 50.3909 54.0095C45.6091 59.6541 42.5695 66.5659 41.6415 73.9052V73.9052ZM70.1088 73.9052H88.89C88.202 62.6051 84.9934 51.6022 79.4994 41.7036C74.0037 51.6018 70.7935 62.6047 70.1041 73.9052H70.1088ZM90.4209 42.109C95.1261 52.0894 97.8519 62.8874 98.4474 73.9052H117.357C116.429 66.5659 113.39 59.6541 108.608 54.0095C103.826 48.365 97.5078 44.2307 90.4209 42.109V42.109Z" fill="#5282DF"></path> </g> <path d="M211.901 101.174L208.573 90.2938H191.933L188.605 101.174H178.173L194.301 55.2858H206.141L222.333 101.174H211.901ZM202.941 71.5418C202.728 70.8165 202.45 69.8992 202.109 68.7898C201.768 67.6805 201.426 66.5498 201.085 65.3978C200.744 64.2458 200.466 63.2432 200.253 62.3898C200.04 63.2432 199.741 64.3098 199.357 65.5898C199.016 66.8272 198.674 68.0218 198.333 69.1738C198.034 70.2832 197.8 71.0725 197.629 71.5418L194.365 82.1658H206.269L202.941 71.5418ZM237.528 66.2298V79.6698H250.84V66.2298H260.376V101.174H250.84V86.7738H237.528V101.174H227.992V66.2298H237.528ZM295.135 66.2298V73.3978H280.543V101.174H271.007V66.2298H295.135ZM331.568 101.174H322.032V73.3978H313.264C312.838 78.5178 312.304 82.8912 311.664 86.5178C311.067 90.1018 310.299 93.0245 309.36 95.2858C308.464 97.5472 307.312 99.2112 305.904 100.278C304.496 101.302 302.768 101.814 300.72 101.814C299.611 101.814 298.608 101.728 297.712 101.558C296.816 101.387 296.006 101.131 295.28 100.79V93.1738C295.75 93.3445 296.24 93.4938 296.752 93.6218C297.264 93.7498 297.798 93.8138 298.352 93.8138C298.95 93.8138 299.504 93.5792 300.016 93.1098C300.571 92.6405 301.083 91.8085 301.552 90.6138C302.064 89.4192 302.534 87.7765 302.96 85.6858C303.387 83.5952 303.771 80.9712 304.112 77.8138C304.496 74.6138 304.838 70.7525 305.136 66.2298H331.568V101.174ZM351.378 80.0538C351.378 80.7792 351.336 81.6752 351.25 82.7418C351.208 83.8085 351.144 84.8965 351.058 86.0058C351.016 87.1152 350.952 88.0965 350.866 88.9498C350.781 89.8032 350.717 90.4005 350.674 90.7418L366.802 66.2298H378.258V101.174H369.042V87.2218C369.042 86.0698 369.085 84.8112 369.17 83.4458C369.256 82.0378 369.341 80.7365 369.426 79.5418C369.554 78.3045 369.64 77.3658 369.682 76.7258L353.618 101.174H342.162V66.2298H351.378V80.0538ZM422.337 51.1898C422.124 53.4085 421.505 55.3712 420.481 57.0778C419.457 58.7418 417.857 60.0432 415.681 60.9818C413.505 61.9205 410.582 62.3898 406.913 62.3898C403.158 62.3898 400.214 61.9418 398.081 61.0458C395.99 60.1072 394.497 58.8058 393.601 57.1418C392.705 55.4778 392.172 53.4938 392.001 51.1898H400.513C400.726 53.5365 401.324 55.0938 402.305 55.8618C403.286 56.6298 404.886 57.0138 407.105 57.0138C408.94 57.0138 410.433 56.6085 411.585 55.7978C412.78 54.9445 413.484 53.4085 413.697 51.1898H422.337ZM398.081 80.0538C398.081 80.7792 398.038 81.6752 397.953 82.7418C397.91 83.8085 397.846 84.8965 397.761 86.0058C397.718 87.1152 397.654 88.0965 397.569 88.9498C397.484 89.8032 397.42 90.4005 397.377 90.7418L413.505 66.2298H424.961V101.174H415.745V87.2218C415.745 86.0698 415.788 84.8112 415.873 83.4458C415.958 82.0378 416.044 80.7365 416.129 79.5418C416.257 78.3045 416.342 77.3658 416.385 76.7258L400.321 101.174H388.865V66.2298H398.081V80.0538ZM449.775 101.814C446.319 101.814 443.375 101.195 440.943 99.9578C438.511 98.6778 436.655 96.7152 435.375 94.0698C434.095 91.4245 433.455 88.0325 433.455 83.8938C433.455 79.6272 434.181 76.1498 435.631 73.4618C437.082 70.7738 439.087 68.7898 441.647 67.5098C444.25 66.2298 447.237 65.5898 450.607 65.5898C452.997 65.5898 455.066 65.8245 456.815 66.2938C458.607 66.7632 460.165 67.3178 461.487 67.9578L458.671 75.3178C457.178 74.7205 455.77 74.2298 454.447 73.8458C453.167 73.4618 451.887 73.2698 450.607 73.2698C448.943 73.2698 447.557 73.6752 446.447 74.4858C445.338 75.2538 444.506 76.4272 443.951 78.0058C443.439 79.5418 443.183 81.4832 443.183 83.8298C443.183 86.1338 443.461 88.0538 444.015 89.5898C444.613 91.0832 445.466 92.2138 446.575 92.9818C447.685 93.7072 449.029 94.0698 450.607 94.0698C452.613 94.0698 454.383 93.8138 455.919 93.3018C457.455 92.7472 458.949 92.0005 460.399 91.0618V99.1898C458.949 100.128 457.413 100.79 455.791 101.174C454.213 101.6 452.207 101.814 449.775 101.814ZM491.994 66.2298H502.49L488.666 82.9978L503.706 101.174H492.89L478.618 83.4458V101.174H469.082V66.2298H478.618V83.1898L491.994 66.2298ZM518.563 80.0538C518.563 80.7792 518.521 81.6752 518.435 82.7418C518.393 83.8085 518.329 84.8965 518.243 86.0058C518.201 87.1152 518.137 88.0965 518.051 88.9498C517.966 89.8032 517.902 90.4005 517.859 90.7418L533.987 66.2298H545.443V101.174H536.227V87.2218C536.227 86.0698 536.27 84.8112 536.355 83.4458C536.441 82.0378 536.526 80.7365 536.611 79.5418C536.739 78.3045 536.825 77.3658 536.867 76.7258L520.803 101.174H509.347V66.2298H518.563V80.0538ZM589.522 51.1898C589.309 53.4085 588.69 55.3712 587.666 57.0778C586.642 58.7418 585.042 60.0432 582.866 60.9818C580.69 61.9205 577.767 62.3898 574.098 62.3898C570.343 62.3898 567.399 61.9418 565.266 61.0458C563.175 60.1072 561.682 58.8058 560.786 57.1418C559.89 55.4778 559.357 53.4938 559.186 51.1898H567.698C567.911 53.5365 568.509 55.0938 569.49 55.8618C570.471 56.6298 572.071 57.0138 574.29 57.0138C576.125 57.0138 577.618 56.6085 578.77 55.7978C579.965 54.9445 580.669 53.4085 580.882 51.1898H589.522ZM565.266 80.0538C565.266 80.7792 565.223 81.6752 565.138 82.7418C565.095 83.8085 565.031 84.8965 564.946 86.0058C564.903 87.1152 564.839 88.0965 564.754 88.9498C564.669 89.8032 564.605 90.4005 564.562 90.7418L580.69 66.2298H592.146V101.174H582.93V87.2218C582.93 86.0698 582.973 84.8112 583.058 83.4458C583.143 82.0378 583.229 80.7365 583.314 79.5418C583.442 78.3045 583.527 77.3658 583.57 76.7258L567.506 101.174H556.05V66.2298H565.266V80.0538Z" fill="#5282DF"></path> <rect x="4.32568" y="3.5" width="752" height="150.347" rx="16.5" stroke="white" stroke-width="7"></rect> <defs> <clipPath id="clip0_2261_2530"> <rect width="114.461" height="114.461" fill="white" transform="translate(22.2688 21.4434)"></rect> </clipPath> </defs> </svg> 