<?xml version="1.0" encoding="UTF-8"?> <svg xmlns="http://www.w3.org/2000/svg" width="765" height="159" viewBox="0 0 765 159" fill="none"> <rect x="3.8472" y="3.52469" width="757.454" height="151.951" rx="16.4753" fill="white"></rect> <rect x="0.32251" width="159" height="159" rx="30" fill="white"></rect> <g clip-path="url(#clip0_2261_2518)"> <path d="M36.3933 36.0703H74.9971V74.6741H36.3933V36.0703ZM36.3933 84.325H74.9971V122.929H36.3933V84.325ZM84.648 36.0703H123.252V74.6741H84.648V36.0703ZM84.648 84.325H123.252V122.929H84.648V84.325ZM94.2989 45.7212V65.0231H113.601V45.7212H94.2989ZM94.2989 93.9759V113.278H113.601V93.9759H94.2989ZM46.0442 45.7212V65.0231H65.3461V45.7212H46.0442ZM46.0442 93.9759V113.278H65.3461V93.9759H46.0442Z" fill="#5282DF"></path> </g> <path d="M204.552 102L193.544 66.16H193.288C193.33 67.0133 193.394 68.2933 193.48 70C193.565 71.7067 193.65 73.5413 193.736 75.504C193.821 77.424 193.864 79.1733 193.864 80.752V102H185.224V56.304H198.408L209.224 91.248H209.416L220.872 56.304H234.056V102H225.032V80.368C225.032 78.9173 225.053 77.2533 225.096 75.376C225.181 73.4987 225.245 71.728 225.288 70.064C225.373 68.3573 225.437 67.0773 225.48 66.224H225.224L213.448 102H204.552ZM259.807 66.352C264.5 66.352 268.084 67.376 270.559 69.424C273.076 71.4293 274.335 74.5227 274.335 78.704V102H267.679L265.823 97.264H265.567C264.585 98.5013 263.561 99.5253 262.495 100.336C261.471 101.147 260.276 101.723 258.911 102.064C257.588 102.448 255.945 102.64 253.983 102.64C251.935 102.64 250.079 102.256 248.415 101.488C246.793 100.677 245.513 99.4613 244.575 97.84C243.636 96.176 243.167 94.0853 243.167 91.568C243.167 87.856 244.468 85.1253 247.071 83.376C249.673 81.584 253.577 80.6027 258.783 80.432L264.863 80.24V78.704C264.863 76.8693 264.372 75.5253 263.391 74.672C262.452 73.8187 261.129 73.392 259.423 73.392C257.716 73.392 256.052 73.648 254.431 74.16C252.809 74.6293 251.188 75.2267 249.567 75.952L246.431 69.488C248.308 68.5067 250.377 67.7387 252.639 67.184C254.943 66.6293 257.332 66.352 259.807 66.352ZM261.151 85.936C258.079 86.0213 255.945 86.576 254.751 87.6C253.556 88.624 252.959 89.968 252.959 91.632C252.959 93.0827 253.385 94.128 254.239 94.768C255.092 95.3653 256.201 95.664 257.567 95.664C259.615 95.664 261.343 95.0667 262.751 93.872C264.159 92.6347 264.863 90.9067 264.863 88.688V85.808L261.151 85.936ZM313.664 74.224H302.208V102H292.672V74.224H281.216V67.056H313.664V74.224ZM334.526 66.416C337.768 66.416 340.542 67.0347 342.846 68.272C345.192 69.5093 347.006 71.3013 348.286 73.648C349.566 75.9947 350.206 78.8747 350.206 82.288V86.896H327.678C327.763 89.584 328.552 91.696 330.046 93.232C331.582 94.768 333.694 95.536 336.382 95.536C338.643 95.536 340.691 95.3227 342.526 94.896C344.36 94.4267 346.259 93.7227 348.222 92.784V100.144C346.515 100.997 344.702 101.616 342.782 102C340.904 102.427 338.622 102.64 335.934 102.64C332.435 102.64 329.342 102 326.654 100.72C323.966 99.3973 321.854 97.4133 320.318 94.768C318.782 92.1227 318.014 88.7947 318.014 84.784C318.014 80.688 318.696 77.296 320.062 74.608C321.47 71.8773 323.411 69.8293 325.886 68.464C328.36 67.0987 331.24 66.416 334.526 66.416ZM334.59 73.2C332.755 73.2 331.219 73.7973 329.982 74.992C328.787 76.1867 328.083 78.0427 327.87 80.56H341.246C341.246 79.152 340.99 77.8933 340.478 76.784C340.008 75.6747 339.283 74.8 338.302 74.16C337.32 73.52 336.083 73.2 334.59 73.2ZM402.61 67.056V102H393.714V84.848C393.714 83.1413 393.735 81.4773 393.778 79.856C393.863 78.2347 393.97 76.7413 394.098 75.376H393.906L384.242 102H377.074L367.282 75.312H367.026C367.197 76.72 367.303 78.2347 367.346 79.856C367.431 81.4347 367.474 83.184 367.474 85.104V102H358.578V67.056H372.082L380.786 90.736L389.618 67.056H402.61ZM427.554 66.352C432.247 66.352 435.831 67.376 438.306 69.424C440.823 71.4293 442.082 74.5227 442.082 78.704V102H435.426L433.57 97.264H433.314C432.333 98.5013 431.309 99.5253 430.242 100.336C429.218 101.147 428.023 101.723 426.658 102.064C425.335 102.448 423.693 102.64 421.73 102.64C419.682 102.64 417.826 102.256 416.162 101.488C414.541 100.677 413.261 99.4613 412.322 97.84C411.383 96.176 410.914 94.0853 410.914 91.568C410.914 87.856 412.215 85.1253 414.818 83.376C417.421 81.584 421.325 80.6027 426.53 80.432L432.61 80.24V78.704C432.61 76.8693 432.119 75.5253 431.138 74.672C430.199 73.8187 428.877 73.392 427.17 73.392C425.463 73.392 423.799 73.648 422.178 74.16C420.557 74.6293 418.935 75.2267 417.314 75.952L414.178 69.488C416.055 68.5067 418.125 67.7387 420.386 67.184C422.69 66.6293 425.079 66.352 427.554 66.352ZM428.898 85.936C425.826 86.0213 423.693 86.576 422.498 87.6C421.303 88.624 420.706 89.968 420.706 91.632C420.706 93.0827 421.133 94.128 421.986 94.768C422.839 95.3653 423.949 95.664 425.314 95.664C427.362 95.664 429.09 95.0667 430.498 93.872C431.906 92.6347 432.61 90.9067 432.61 88.688V85.808L428.898 85.936ZM481.411 74.224H469.955V102H460.419V74.224H448.963V67.056H481.411V74.224ZM497.714 80.88C497.714 81.6053 497.671 82.5013 497.586 83.568C497.543 84.6347 497.479 85.7227 497.394 86.832C497.351 87.9413 497.287 88.9227 497.202 89.776C497.117 90.6293 497.053 91.2267 497.01 91.568L513.138 67.056H524.594V102H515.378V88.048C515.378 86.896 515.421 85.6373 515.506 84.272C515.591 82.864 515.677 81.5627 515.762 80.368C515.89 79.1307 515.975 78.192 516.018 77.552L499.954 102H488.498V67.056H497.714V80.88ZM558.113 67.056H568.609L554.785 83.824L569.825 102H559.009L544.737 84.272V102H535.201V67.056H544.737V84.016L558.113 67.056ZM589.802 66.352C594.495 66.352 598.079 67.376 600.554 69.424C603.071 71.4293 604.33 74.5227 604.33 78.704V102H597.674L595.818 97.264H595.562C594.58 98.5013 593.556 99.5253 592.49 100.336C591.466 101.147 590.271 101.723 588.906 102.064C587.583 102.448 585.94 102.64 583.978 102.64C581.93 102.64 580.074 102.256 578.41 101.488C576.788 100.677 575.508 99.4613 574.57 97.84C573.631 96.176 573.162 94.0853 573.162 91.568C573.162 87.856 574.463 85.1253 577.066 83.376C579.668 81.584 583.572 80.6027 588.778 80.432L594.858 80.24V78.704C594.858 76.8693 594.367 75.5253 593.386 74.672C592.447 73.8187 591.124 73.392 589.418 73.392C587.711 73.392 586.047 73.648 584.426 74.16C582.804 74.6293 581.183 75.2267 579.562 75.952L576.426 69.488C578.303 68.5067 580.372 67.7387 582.634 67.184C584.938 66.6293 587.327 66.352 589.802 66.352ZM591.146 85.936C588.074 86.0213 585.94 86.576 584.746 87.6C583.551 88.624 582.954 89.968 582.954 91.632C582.954 93.0827 583.38 94.128 584.234 94.768C585.087 95.3653 586.196 95.664 587.562 95.664C589.61 95.664 591.338 95.0667 592.746 93.872C594.154 92.6347 594.858 90.9067 594.858 88.688V85.808L591.146 85.936Z" fill="#5282DF"></path> <rect x="3.8472" y="3.52469" width="757.454" height="151.951" rx="16.4753" stroke="white" stroke-width="7.04938"></rect> <defs> <clipPath id="clip0_2261_2518"> <rect width="115.811" height="115.811" fill="white" transform="translate(21.917 21.5938)"></rect> </clipPath> </defs> </svg> 