<?xml version="1.0" encoding="UTF-8"?> <svg xmlns="http://www.w3.org/2000/svg" width="523" height="158" viewBox="0 0 523 158" fill="none"> <rect x="3.5" y="3.5" width="516" height="150.886" rx="16.5" fill="white"></rect> <rect width="157.886" height="157.886" rx="30" fill="white"></rect> <path d="M83.7349 93.3178C81.0885 93.3178 78.9432 95.4631 78.9432 98.1094C78.9432 100.756 81.0885 102.901 83.7349 102.901C86.3812 102.901 88.5265 100.756 88.5265 98.1094C88.5265 95.4631 86.3812 93.3178 83.7349 93.3178Z" fill="#5282DF"></path> <path d="M69.3599 102.901C66.7135 102.901 64.5682 105.046 64.5682 107.693C64.5682 110.339 66.7135 112.484 69.3599 112.484C72.0062 112.484 74.1515 110.339 74.1515 107.693C74.1515 105.046 72.0062 102.901 69.3599 102.901Z" fill="#5282DF"></path> <path fill-rule="evenodd" clip-rule="evenodd" d="M90.897 37.0157L90.8753 37.0156H67.0109L66.9893 37.0157H62.1724C60.1876 37.0157 58.5786 38.6247 58.5786 40.6094C58.5786 42.5942 60.1876 44.2032 62.1724 44.2032H63.4172V68.4543C42.0861 78.538 39.0045 107.942 58.177 122.161L59.5906 123.21C71.0842 131.734 86.8021 131.734 98.2957 123.21L99.7092 122.161C118.882 107.942 115.8 78.538 94.4691 68.4543V44.2032H95.714C97.6988 44.2032 99.3078 42.5942 99.3078 40.6094C99.3078 38.6247 97.6988 37.0157 95.714 37.0157H90.897ZM63.8722 117.437C72.823 124.075 85.0633 124.075 94.0141 117.437L95.4276 116.388C105.085 109.226 107.425 97.0701 103.307 87.3282H54.5795C50.4613 97.0701 52.8012 109.226 62.4587 116.388L63.8722 117.437ZM59.2823 80.1407H98.604C96.437 77.8636 93.7539 75.9515 90.5753 74.581C88.5763 73.7192 87.2816 71.751 87.2816 69.5742V44.2032H70.6047V69.5742C70.6047 71.751 69.3099 73.7192 67.3109 74.581C64.1323 75.9515 61.4493 77.8636 59.2823 80.1407Z" fill="#5282DF"></path> <path d="M220.574 101.443H209.502L198.878 84.1634L188.254 101.443H177.886L193.054 77.8914L178.846 55.7474H189.534L199.39 72.1954L209.054 55.7474H219.486L205.15 78.4034L220.574 101.443ZM235.422 80.3234C235.422 81.0487 235.379 81.9447 235.294 83.0114C235.251 84.078 235.187 85.166 235.102 86.2754C235.059 87.3847 234.995 88.366 234.91 89.2194C234.824 90.0727 234.76 90.67 234.718 91.0114L250.846 66.4994H262.302V101.443H253.086V87.4914C253.086 86.3394 253.128 85.0807 253.214 83.7154C253.299 82.3074 253.384 81.006 253.47 79.8114C253.598 78.574 253.683 77.6354 253.726 76.9954L237.662 101.443H226.206V66.4994H235.422V80.3234ZM316.94 66.4994V101.443H308.044V84.2914C308.044 82.5847 308.066 80.9207 308.108 79.2994C308.194 77.678 308.3 76.1847 308.428 74.8194H308.236L298.572 101.443H291.404L281.612 74.7554H281.356C281.527 76.1634 281.634 77.678 281.676 79.2994C281.762 80.878 281.804 82.6274 281.804 84.5474V101.443H272.908V66.4994H286.412L295.116 90.1794L303.948 66.4994H316.94ZM336.764 80.3234C336.764 81.0487 336.722 81.9447 336.636 83.0114C336.594 84.078 336.53 85.166 336.444 86.2754C336.402 87.3847 336.338 88.366 336.252 89.2194C336.167 90.0727 336.103 90.67 336.06 91.0114L352.188 66.4994H363.644V101.443H354.428V87.4914C354.428 86.3394 354.471 85.0807 354.556 83.7154C354.642 82.3074 354.727 81.006 354.812 79.8114C354.94 78.574 355.026 77.6354 355.068 76.9954L339.004 101.443H327.548V66.4994H336.764V80.3234ZM379.563 101.443H369.259L378.667 87.6194C377.472 87.1074 376.341 86.4247 375.275 85.5714C374.251 84.6754 373.419 83.5447 372.779 82.1794C372.139 80.814 371.819 79.1927 371.819 77.3154C371.819 73.8167 373.141 71.15 375.787 69.3154C378.432 67.438 381.824 66.4994 385.963 66.4994H402.219V101.443H392.683V88.4514H387.435L379.563 101.443ZM381.163 77.3794C381.163 78.83 381.739 79.982 382.891 80.8354C384.043 81.646 385.536 82.0514 387.371 82.0514H392.683V73.2194H386.155C384.448 73.2194 383.189 73.646 382.379 74.4994C381.568 75.31 381.163 76.27 381.163 77.3794Z" fill="#5282DF"></path> <rect x="3.5" y="3.5" width="516" height="150.886" rx="16.5" stroke="white" stroke-width="7"></rect> </svg> 